<svg width="256" height="256" viewBox="0 0 256 256" fill="none" xmlns="http://www.w3.org/2000/svg">
<g filter="url(#filter0_d_1_64)">
<rect x="25" y="25" width="206" height="206" rx="46" fill="white"/>
<rect x="25" y="25" width="206" height="206" rx="46" fill="url(#paint0_linear_1_64)" fill-opacity="0.2"/>
</g>
<g filter="url(#filter1_i_1_64)">
<path fill-rule="evenodd" clip-rule="evenodd" d="M63.25 149.27C63.25 179.546 87.883 204.18 118.16 204.18C122.664 204.18 127.043 203.634 131.235 202.607C135.012 203.634 138.959 204.179 143.017 204.179C170.3 204.179 192.5 179.546 192.5 149.27C192.5 118.993 170.3 94.3601 143.017 94.3601C138.959 94.3601 135.012 94.9052 131.235 95.933C127.043 94.9052 122.664 94.36 118.16 94.36C87.883 94.36 63.25 118.993 63.25 149.27ZM114.576 104.36C91.3955 106.192 73.0993 125.636 73.0993 149.28C73.0993 172.933 91.4103 192.383 114.604 194.201C101.87 184.256 93.5345 167.822 93.5345 149.27C93.5345 130.731 101.858 114.308 114.576 104.36Z" fill="url(#paint1_linear_1_64)"/>
</g>
<g filter="url(#filter2_i_1_64)">
<path fill-rule="evenodd" clip-rule="evenodd" d="M109.19 82.8578H150.498C158.643 82.8578 165.271 76.2292 165.271 68.0839V52H123.964C115.818 52 109.19 58.6286 109.19 66.7739V82.8578Z" fill="url(#paint2_linear_1_64)"/>
</g>
<defs>
<filter id="filter0_d_1_64" x="19.5" y="22.25" width="217" height="217" filterUnits="userSpaceOnUse" color-interpolation-filters="sRGB">
<feFlood flood-opacity="0" result="BackgroundImageFix"/>
<feColorMatrix in="SourceAlpha" type="matrix" values="0 0 0 0 0 0 0 0 0 0 0 0 0 0 0 0 0 0 127 0" result="hardAlpha"/>
<feOffset dy="2.75"/>
<feGaussianBlur stdDeviation="2.75"/>
<feColorMatrix type="matrix" values="0 0 0 0 0 0 0 0 0 0 0 0 0 0 0 0 0 0 0.28 0"/>
<feBlend mode="normal" in2="BackgroundImageFix" result="effect1_dropShadow_1_64"/>
<feBlend mode="normal" in="SourceGraphic" in2="effect1_dropShadow_1_64" result="shape"/>
</filter>
<filter id="filter1_i_1_64" x="63.25" y="94.36" width="129.25" height="110.819" filterUnits="userSpaceOnUse" color-interpolation-filters="sRGB">
<feFlood flood-opacity="0" result="BackgroundImageFix"/>
<feBlend mode="normal" in="SourceGraphic" in2="BackgroundImageFix" result="shape"/>
<feColorMatrix in="SourceAlpha" type="matrix" values="0 0 0 0 0 0 0 0 0 0 0 0 0 0 0 0 0 0 127 0" result="hardAlpha"/>
<feOffset dy="1"/>
<feGaussianBlur stdDeviation="2.5"/>
<feComposite in2="hardAlpha" operator="arithmetic" k2="-1" k3="1"/>
<feColorMatrix type="matrix" values="0 0 0 0 0 0 0 0 0 0 0 0 0 0 0 0 0 0 0.1 0"/>
<feBlend mode="normal" in2="shape" result="effect1_innerShadow_1_64"/>
</filter>
<filter id="filter2_i_1_64" x="109.19" y="52" width="56.0818" height="31.8578" filterUnits="userSpaceOnUse" color-interpolation-filters="sRGB">
<feFlood flood-opacity="0" result="BackgroundImageFix"/>
<feBlend mode="normal" in="SourceGraphic" in2="BackgroundImageFix" result="shape"/>
<feColorMatrix in="SourceAlpha" type="matrix" values="0 0 0 0 0 0 0 0 0 0 0 0 0 0 0 0 0 0 127 0" result="hardAlpha"/>
<feOffset dy="1"/>
<feGaussianBlur stdDeviation="2.5"/>
<feComposite in2="hardAlpha" operator="arithmetic" k2="-1" k3="1"/>
<feColorMatrix type="matrix" values="0 0 0 0 0 0 0 0 0 0 0 0 0 0 0 0 0 0 0.1 0"/>
<feBlend mode="normal" in2="shape" result="effect1_innerShadow_1_64"/>
</filter>
<linearGradient id="paint0_linear_1_64" x1="128" y1="25" x2="128" y2="231" gradientUnits="userSpaceOnUse">
<stop stop-opacity="0"/>
<stop offset="1" stop-opacity="0.2"/>
</linearGradient>
<linearGradient id="paint1_linear_1_64" x1="143.017" y1="94.9154" x2="143.017" y2="204.735" gradientUnits="userSpaceOnUse">
<stop stop-color="#E84545"/>
<stop offset="0.416667" stop-color="#E86845"/>
<stop offset="1" stop-color="#E8B145" stop-opacity="0.81"/>
</linearGradient>
<linearGradient id="paint2_linear_1_64" x1="137.231" y1="52" x2="137.231" y2="82.8578" gradientUnits="userSpaceOnUse">
<stop stop-color="#97AA53"/>
<stop offset="1" stop-color="#616F31"/>
</linearGradient>
</defs>
</svg>
