<?xml version="1.0" standalone="no"?>
<!DOCTYPE svg PUBLIC "-//W3C//DTD SVG 20010904//EN"
 "http://www.w3.org/TR/2001/REC-SVG-20010904/DTD/svg10.dtd">
<svg version="1.0" xmlns="http://www.w3.org/2000/svg"
 width="700.000000pt" height="700.000000pt" viewBox="0 0 700.000000 700.000000"
 preserveAspectRatio="xMidYMid meet">
<metadata>
Created by potrace 1.14, written by Peter Selinger 2001-2017
</metadata>
<g transform="translate(0.000000,700.000000) scale(0.100000,-0.100000)"
fill="#000000" stroke="none">
<path d="M2710 6875 c-271 -54 -473 -205 -538 -401 -18 -54 -20 -89 -21 -394
l-1 -335 1062 1 c585 1 1088 4 1118 8 293 36 525 191 602 404 20 53 21 78 22
392 l1 335 -1090 1 c-860 2 -1104 -1 -1155 -11z"/>
<path d="M2778 4885 c-1 -1 -37 -6 -78 -10 -136 -12 -208 -25 -351 -60 -251
-64 -516 -181 -731 -326 -191 -128 -429 -349 -560 -519 -190 -247 -339 -539
-418 -820 -21 -73 -25 -89 -34 -138 -3 -13 -7 -31 -10 -40 -3 -9 -7 -33 -10
-52 -3 -19 -8 -46 -10 -60 -32 -179 -38 -539 -11 -680 3 -13 7 -42 10 -65 8
-56 25 -141 40 -200 21 -81 55 -198 65 -220 5 -11 14 -38 21 -60 6 -22 15 -42
18 -45 3 -3 12 -22 20 -44 13 -39 45 -110 61 -136 4 -8 17 -33 28 -55 32 -66
61 -115 125 -210 67 -101 205 -275 218 -275 4 0 11 -9 14 -20 4 -11 11 -18 16
-15 5 4 9 1 9 -5 0 -21 165 -172 294 -269 118 -88 141 -103 151 -94 4 5 5 3 2
-3 -8 -14 190 -127 206 -118 7 4 9 3 4 -1 -9 -11 142 -85 164 -81 3 1 12 -4
20 -10 16 -13 111 -45 120 -41 3 1 12 -3 20 -10 8 -6 26 -14 41 -17 14 -2 35
-9 45 -14 10 -6 23 -10 28 -11 6 0 42 -8 81 -17 39 -8 79 -17 90 -19 10 -2 19
-4 19 -5 0 -2 34 -9 75 -14 119 -16 209 -21 403 -20 179 0 220 3 228 15 6 10
9 11 9 1 0 -7 4 -10 10 -7 5 3 31 8 56 11 26 2 52 8 58 12 6 4 23 7 39 6 15 0
27 2 27 5 0 3 12 7 28 8 33 1 73 10 106 23 13 5 27 6 30 3 3 -4 6 -1 6 6 0 7
3 10 8 8 4 -3 16 -1 27 3 11 4 36 1 57 -6 20 -7 39 -10 42 -7 3 4 6 2 6 -3 0
-9 24 -14 72 -17 9 -1 15 -4 12 -8 -6 -10 84 -22 98 -13 6 4 8 3 5 -3 -7 -11
83 -27 156 -28 20 0 37 -3 37 -6 0 -7 321 -4 365 4 17 3 58 8 92 12 35 4 61
10 59 14 -3 4 8 6 22 5 15 0 38 2 52 7 168 50 207 63 219 73 8 6 16 10 18 8 7
-6 72 22 67 29 -2 4 5 5 16 2 11 -3 20 0 20 6 0 6 7 11 16 11 9 0 23 8 31 18
8 9 12 11 8 4 -4 -7 24 4 62 25 37 20 70 41 71 45 2 4 10 8 18 8 9 0 12 4 9
10 -3 6 1 7 9 4 9 -3 16 -2 16 3 0 6 12 15 28 22 15 7 34 19 42 27 8 8 43 35
78 59 38 28 60 50 56 57 -4 7 -3 8 4 4 14 -9 84 53 75 67 -3 6 -1 7 5 3 13 -8
135 107 125 117 -3 4 0 7 8 7 19 1 102 106 94 120 -3 6 0 7 9 4 9 -3 16 -2 16
3 0 5 8 18 18 29 10 10 38 48 62 84 25 36 50 68 55 72 6 4 6 8 1 8 -5 0 -1 9
9 20 10 11 15 20 12 20 -4 0 2 10 13 22 10 13 20 28 20 33 1 6 9 18 17 28 9 9
12 17 7 17 -5 0 -4 4 2 8 15 9 101 186 138 282 16 41 35 89 42 107 8 17 14 35
14 40 0 4 11 44 25 88 14 43 28 93 31 109 3 16 6 32 8 35 2 3 7 23 10 43 3 21
10 57 15 80 5 24 12 66 15 93 4 28 8 61 11 75 7 38 18 234 18 330 0 291 -46
573 -139 850 -154 459 -408 831 -757 1111 -127 102 -197 148 -332 219 -157 82
-382 163 -515 184 -19 3 -45 8 -57 10 -59 12 -171 20 -288 20 -116 0 -166 -3
-296 -18 -52 -7 -215 -46 -275 -66 -49 -17 -54 -17 -118 0 -84 24 -245 57
-311 65 -27 3 -61 8 -75 11 -27 6 -396 15 -402 9z m240 -434 c21 -1 20 -4 -15
-33 -150 -128 -305 -303 -423 -477 -137 -204 -247 -442 -325 -703 -26 -88 -72
-301 -79 -367 -2 -20 -8 -63 -12 -96 -17 -120 -9 -587 11 -665 2 -8 7 -37 11
-65 6 -53 36 -192 55 -260 51 -181 150 -442 166 -438 4 1 9 -11 10 -25 0 -15
6 -28 12 -30 6 -2 9 -7 6 -12 -3 -5 2 -16 11 -24 8 -9 13 -16 10 -16 -3 0 8
-22 24 -49 17 -26 30 -51 30 -55 0 -4 5 -12 10 -19 6 -7 29 -41 53 -77 75
-115 119 -170 129 -163 7 4 8 1 4 -6 -10 -15 23 -53 37 -44 5 3 7 1 4 -4 -7
-11 6 -28 90 -116 30 -31 60 -54 65 -50 6 3 8 2 5 -4 -8 -13 37 -56 48 -46 4
5 5 3 2 -3 -6 -10 54 -67 64 -61 2 1 3 0 2 -2 -2 -2 2 -10 8 -18 9 -10 6 -13
-12 -14 -46 -2 -195 2 -244 7 -27 3 -72 7 -100 9 -27 2 -50 5 -50 6 0 3 -60
11 -87 13 -16 0 -28 5 -28 10 0 4 -11 6 -25 4 -13 -3 -22 -2 -20 2 3 4 -12 11
-33 15 -20 4 -61 15 -91 26 -30 10 -58 16 -62 13 -5 -3 -9 -1 -9 5 0 7 -52 31
-80 36 -3 1 -31 13 -63 28 -32 15 -62 27 -67 27 -6 0 -10 5 -10 10 0 6 -9 10
-20 10 -11 0 -20 4 -20 9 0 5 -8 11 -17 15 -29 9 -116 63 -174 107 -19 15 -41
29 -48 31 -7 2 -28 18 -47 36 -19 20 -38 30 -45 26 -7 -4 -9 -3 -6 3 4 6 -19
32 -50 59 -66 58 -123 116 -123 127 0 4 -7 7 -16 7 -8 0 -13 4 -10 9 4 5 -8
21 -25 35 -17 14 -27 26 -23 26 4 0 -3 8 -14 19 -12 10 -22 21 -22 25 0 3 -19
32 -43 63 -24 32 -54 76 -67 98 -13 22 -27 42 -30 45 -11 10 -128 255 -140
295 -7 22 -15 45 -19 50 -3 6 -6 12 -7 15 0 3 -3 12 -7 20 -19 47 -63 225 -73
295 -2 17 -6 41 -9 55 -10 49 -18 176 -19 280 -1 301 66 593 200 869 150 309
387 582 669 772 81 54 98 65 190 114 116 62 385 161 458 169 13 2 28 5 33 8 5
4 34 9 64 13 30 4 58 9 61 10 3 2 57 7 120 11 63 3 115 7 116 8 2 2 78 0 131
-3z m2867 -2920 c3 -5 2 -12 -3 -15 -5 -3 -9 1 -9 9 0 17 3 19 12 6z m-985
-365 c0 -2 -8 -10 -17 -17 -16 -13 -17 -12 -4 4 13 16 21 21 21 13z m-570 -26
c0 -5 -2 -10 -4 -10 -3 0 -8 5 -11 10 -3 6 -1 10 4 10 6 0 11 -4 11 -10z
m-1295 -60 c-3 -5 -12 -10 -18 -10 -7 0 -6 4 3 10 19 12 23 12 15 0z m825 -56
c0 -8 -19 -13 -24 -6 -3 5 1 9 9 9 8 0 15 -2 15 -3z m-437 -99 c-3 -9 -8 -14
-10 -11 -3 3 -2 9 2 15 9 16 15 13 8 -4z m222 -34 c3 -5 2 -12 -3 -15 -5 -3
-9 1 -9 9 0 17 3 19 12 6z m645 -7 c0 -8 -19 -13 -24 -6 -3 5 1 9 9 9 8 0 15
-2 15 -3z m1280 0 c0 -8 -19 -13 -24 -6 -3 5 1 9 9 9 8 0 15 -2 15 -3z m-3835
-43 c-9 -8 -36 -10 -30 -2 2 4 11 8 20 8 8 0 13 -3 10 -6z m3110 -41 c3 -5 1
-10 -4 -10 -6 0 -11 5 -11 10 0 6 2 10 4 10 3 0 8 -4 11 -10z m320 0 c3 -5 1
-10 -4 -10 -6 0 -11 5 -11 10 0 6 2 10 4 10 3 0 8 -4 11 -10z m-70 -40 c3 -6
-1 -7 -9 -4 -18 7 -21 14 -7 14 6 0 13 -4 16 -10z m515 -24 c0 -2 -8 -10 -17
-17 -16 -13 -17 -12 -4 4 13 16 21 21 21 13z m-3884 -62 c1 -9 0 -13 -4 -10
-3 4 -7 14 -8 22 -1 9 0 13 4 10 3 -4 7 -14 8 -22z m84 22 c0 -2 -8 -10 -17
-17 -16 -13 -17 -12 -4 4 13 16 21 21 21 13z m-115 -176 c-3 -5 -12 -10 -18
-10 -7 0 -6 4 3 10 19 12 23 12 15 0z m2075 0 c0 -5 -2 -10 -4 -10 -3 0 -8 5
-11 10 -3 6 -1 10 4 10 6 0 11 -4 11 -10z m1204 -78 c3 -5 -1 -9 -9 -9 -8 0
-12 4 -9 9 3 4 7 8 9 8 2 0 6 -4 9 -8z m-1289 -81 c3 -5 2 -12 -3 -15 -5 -3
-9 1 -9 9 0 17 3 19 12 6z m-1704 -48 c13 -16 12 -17 -3 -4 -17 13 -22 21 -14
21 2 0 10 -8 17 -17z m907 -38 c-3 -3 -9 2 -12 12 -6 14 -5 15 5 6 7 -7 10
-15 7 -18z m1762 21 c0 -2 -8 -10 -17 -17 -16 -13 -17 -12 -4 4 13 16 21 21
21 13z m-846 -22 c3 -8 2 -12 -4 -9 -6 3 -10 10 -10 16 0 14 7 11 14 -7z m201
-42 c-3 -3 -11 0 -18 7 -9 10 -8 11 6 5 10 -3 15 -9 12 -12z m-640 -21 c3 -5
2 -12 -3 -15 -5 -3 -9 1 -9 9 0 17 3 19 12 6z m-598 -46 c0 -8 -4 -12 -9 -9
-5 3 -6 10 -3 15 9 13 12 11 12 -6z m-147 -1 c0 -8 -19 -13 -24 -6 -3 5 1 9 9
9 8 0 15 -2 15 -3z m67 -9 c0 -8 -4 -12 -9 -9 -5 3 -6 10 -3 15 9 13 12 11 12
-6z m1603 -19 c0 -2 -8 -10 -17 -17 -16 -13 -17 -12 -4 4 13 16 21 21 21 13z
m40 -16 c0 -5 -5 -10 -11 -10 -5 0 -7 5 -4 10 3 6 8 10 11 10 2 0 4 -4 4 -10z"/>
</g>
</svg>
