<svg width="64" height="64" viewBox="0 0 64 64" fill="none" xmlns="http://www.w3.org/2000/svg">
<g filter="url(#filter0_d_1_112)">
<rect x="6.25" y="6.25" width="51.5" height="51.5" rx="11.5" fill="white"/>
<rect x="6.25" y="6.25" width="51.5" height="51.5" rx="11.5" fill="url(#paint0_linear_1_112)" fill-opacity="0.2"/>
</g>
<g filter="url(#filter1_i_1_112)">
<path fill-rule="evenodd" clip-rule="evenodd" d="M28.6509 48.5503C25.4676 46.064 23.3836 41.9556 23.3836 37.3175C23.3836 32.6827 25.4645 28.5769 28.6439 26.0901C22.8489 26.5481 18.2748 31.4091 18.2748 37.3199C18.2748 43.2332 22.8526 48.0957 28.6509 48.5503ZM32.8088 50.6517C31.7608 50.9086 30.666 51.0449 29.5399 51.0449C21.9708 51.0449 15.8125 44.8866 15.8125 37.3175C15.8125 29.7483 21.9708 23.59 29.5399 23.59C30.666 23.59 31.7608 23.7263 32.8087 23.9833C33.7531 23.7263 34.7396 23.59 35.7543 23.59C42.5749 23.59 48.125 29.7483 48.125 37.3175C48.125 44.8866 42.5749 51.0449 35.7543 51.0449C34.7396 51.0449 33.7531 50.9086 32.8088 50.6517Z" fill="url(#paint1_linear_1_112)"/>
</g>
<g filter="url(#filter2_i_1_112)">
<path fill-rule="evenodd" clip-rule="evenodd" d="M27.2974 20.7144H37.6243C39.6607 20.7144 41.3178 19.0573 41.3178 17.021V13H30.9908C28.9545 13 27.2974 14.6571 27.2974 16.6935V20.7144Z" fill="url(#paint2_linear_1_112)"/>
</g>
<defs>
<filter id="filter0_d_1_112" x="4.875" y="5.5625" width="54.25" height="54.25" filterUnits="userSpaceOnUse" color-interpolation-filters="sRGB">
<feFlood flood-opacity="0" result="BackgroundImageFix"/>
<feColorMatrix in="SourceAlpha" type="matrix" values="0 0 0 0 0 0 0 0 0 0 0 0 0 0 0 0 0 0 127 0" result="hardAlpha"/>
<feOffset dy="0.6875"/>
<feGaussianBlur stdDeviation="0.6875"/>
<feColorMatrix type="matrix" values="0 0 0 0 0 0 0 0 0 0 0 0 0 0 0 0 0 0 0.28 0"/>
<feBlend mode="normal" in2="BackgroundImageFix" result="effect1_dropShadow_1_112"/>
<feBlend mode="normal" in="SourceGraphic" in2="effect1_dropShadow_1_112" result="shape"/>
</filter>
<filter id="filter1_i_1_112" x="15.8125" y="23.59" width="32.3125" height="27.7049" filterUnits="userSpaceOnUse" color-interpolation-filters="sRGB">
<feFlood flood-opacity="0" result="BackgroundImageFix"/>
<feBlend mode="normal" in="SourceGraphic" in2="BackgroundImageFix" result="shape"/>
<feColorMatrix in="SourceAlpha" type="matrix" values="0 0 0 0 0 0 0 0 0 0 0 0 0 0 0 0 0 0 127 0" result="hardAlpha"/>
<feOffset dy="0.25"/>
<feGaussianBlur stdDeviation="0.625"/>
<feComposite in2="hardAlpha" operator="arithmetic" k2="-1" k3="1"/>
<feColorMatrix type="matrix" values="0 0 0 0 0 0 0 0 0 0 0 0 0 0 0 0 0 0 0.1 0"/>
<feBlend mode="normal" in2="shape" result="effect1_innerShadow_1_112"/>
</filter>
<filter id="filter2_i_1_112" x="27.2974" y="13" width="14.0205" height="7.96445" filterUnits="userSpaceOnUse" color-interpolation-filters="sRGB">
<feFlood flood-opacity="0" result="BackgroundImageFix"/>
<feBlend mode="normal" in="SourceGraphic" in2="BackgroundImageFix" result="shape"/>
<feColorMatrix in="SourceAlpha" type="matrix" values="0 0 0 0 0 0 0 0 0 0 0 0 0 0 0 0 0 0 127 0" result="hardAlpha"/>
<feOffset dy="0.25"/>
<feGaussianBlur stdDeviation="0.625"/>
<feComposite in2="hardAlpha" operator="arithmetic" k2="-1" k3="1"/>
<feColorMatrix type="matrix" values="0 0 0 0 0 0 0 0 0 0 0 0 0 0 0 0 0 0 0.1 0"/>
<feBlend mode="normal" in2="shape" result="effect1_innerShadow_1_112"/>
</filter>
<linearGradient id="paint0_linear_1_112" x1="32" y1="6.25" x2="32" y2="57.75" gradientUnits="userSpaceOnUse">
<stop stop-opacity="0"/>
<stop offset="1" stop-opacity="0.2"/>
</linearGradient>
<linearGradient id="paint1_linear_1_112" x1="35.7543" y1="23.7289" x2="35.7543" y2="51.1837" gradientUnits="userSpaceOnUse">
<stop stop-color="#E84545"/>
<stop offset="0.416667" stop-color="#E86845"/>
<stop offset="1" stop-color="#E8B145" stop-opacity="0.81"/>
</linearGradient>
<linearGradient id="paint2_linear_1_112" x1="34.3076" y1="13" x2="34.3076" y2="20.7144" gradientUnits="userSpaceOnUse">
<stop stop-color="#97AA53"/>
<stop offset="1" stop-color="#616F31"/>
</linearGradient>
</defs>
</svg>
