<svg width="120" height="142" viewBox="0 0 120 142" fill="none" xmlns="http://www.w3.org/2000/svg">
<g filter="url(#filter0_i_303_5837)">
<path fill-rule="evenodd" clip-rule="evenodd" d="M0 90.3085C0 118.418 22.8701 141.289 50.98 141.289C55.1618 141.289 59.2277 140.782 63.1195 139.828C66.6266 140.782 70.2903 141.288 74.0586 141.288C99.3885 141.288 120 118.418 120 90.3085C120 62.1986 99.3885 39.3285 74.0586 39.3285C70.2903 39.3285 66.6265 39.8346 63.1194 40.7889C59.2276 39.8346 55.1618 39.3285 50.98 39.3285C22.8701 39.3285 0 62.1987 0 90.3085ZM47.6524 48.613C26.1312 50.3139 9.14439 68.3662 9.14439 90.3176C9.14439 112.278 26.1449 130.336 47.6784 132.024C35.8565 122.791 28.1171 107.533 28.1171 90.3085C28.1171 73.0962 35.8451 57.8485 47.6524 48.613Z" fill="white"/>
</g>
<g filter="url(#filter1_i_303_5837)">
<path fill-rule="evenodd" clip-rule="evenodd" d="M42.652 28.6494H81.0036C88.566 28.6494 94.7202 22.4952 94.7202 14.9328V0H56.3686C48.8062 0 42.652 6.15418 42.652 13.7166V28.6494Z" fill="white"/>
</g>
<defs>
<filter id="filter0_i_303_5837" x="0" y="39.3285" width="120" height="105.96" filterUnits="userSpaceOnUse" color-interpolation-filters="sRGB">
<feFlood flood-opacity="0" result="BackgroundImageFix"/>
<feBlend mode="normal" in="SourceGraphic" in2="BackgroundImageFix" result="shape"/>
<feColorMatrix in="SourceAlpha" type="matrix" values="0 0 0 0 0 0 0 0 0 0 0 0 0 0 0 0 0 0 127 0" result="hardAlpha"/>
<feOffset dy="4"/>
<feGaussianBlur stdDeviation="10"/>
<feComposite in2="hardAlpha" operator="arithmetic" k2="-1" k3="1"/>
<feColorMatrix type="matrix" values="0 0 0 0 0 0 0 0 0 0 0 0 0 0 0 0 0 0 0.1 0"/>
<feBlend mode="normal" in2="shape" result="effect1_innerShadow_303_5837"/>
</filter>
<filter id="filter1_i_303_5837" x="42.652" y="0" width="52.0682" height="32.6494" filterUnits="userSpaceOnUse" color-interpolation-filters="sRGB">
<feFlood flood-opacity="0" result="BackgroundImageFix"/>
<feBlend mode="normal" in="SourceGraphic" in2="BackgroundImageFix" result="shape"/>
<feColorMatrix in="SourceAlpha" type="matrix" values="0 0 0 0 0 0 0 0 0 0 0 0 0 0 0 0 0 0 127 0" result="hardAlpha"/>
<feOffset dy="4"/>
<feGaussianBlur stdDeviation="10"/>
<feComposite in2="hardAlpha" operator="arithmetic" k2="-1" k3="1"/>
<feColorMatrix type="matrix" values="0 0 0 0 0 0 0 0 0 0 0 0 0 0 0 0 0 0 0.1 0"/>
<feBlend mode="normal" in2="shape" result="effect1_innerShadow_303_5837"/>
</filter>
</defs>
</svg>
